<svg width="60" height="24" viewBox="0 0 60 24" fill="none" xmlns="http://www.w3.org/2000/svg">
<path d="M9.04156 5.89513C8.5052 5.89513 6.12987 5.97004 4.5974 7.9176V4.24719C4.5974 3.04869 3.6013 2 2.2987 2C0.996104 2 0 2.97378 0 4.24719V20.0524C0 21.1011 0.919481 22 1.99221 22H2.6052C3.67792 22 4.5974 21.1011 4.5974 20.0524C6.12987 21.7004 8.5052 22 9.04156 22C13.5623 22 16.7805 18.7041 16.7805 13.985C16.7805 9.26592 13.5623 5.89513 9.04156 5.89513ZM9.5013 18.4045C9.5013 15.9326 7.50909 13.985 4.98052 13.985C7.50909 13.985 9.5013 12.0375 9.5013 9.56554C9.5013 12.0375 11.4935 13.985 14.0221 13.985C11.4935 13.985 9.5013 15.9326 9.5013 18.4045Z" fill="#F45D44"/>
<path d="M22.3782 4.24719V19.7528C22.3782 20.9513 21.3821 22 20.0795 22C18.8535 22 17.7808 21.0262 17.7808 19.7528V4.24719C17.7808 3.04869 18.7769 2 20.0795 2C21.3821 2 22.3782 3.04869 22.3782 4.24719Z" fill="#F45D44"/>
<path d="M25.9066 2C27.2858 2 28.2819 2.97378 28.2819 4.3221C28.2819 5.67041 27.2858 6.64419 25.9066 6.64419C24.5274 6.64419 23.5312 5.67041 23.5312 4.3221C23.5312 2.97378 24.5274 2 25.9066 2Z" fill="#F45D44"/>
<path d="M31.7299 15.7078C31.7299 16.7565 30.8104 17.6553 29.661 17.5055C28.6649 17.4306 27.9753 16.5317 27.9753 15.558V15.3332V9.79016V9.64035C27.8987 8.44184 26.9026 7.54297 25.6766 7.54297C24.4507 7.54297 23.3779 8.51675 23.3779 9.79016V15.3332C23.3779 15.4081 23.3779 15.558 23.3779 15.6329C23.3779 19.2284 26.5195 22.1497 30.1974 21.925C33.5688 21.7003 36.174 18.7789 36.174 15.483V15.2583C36.174 14.0598 35.1779 13.0111 33.8753 13.0111C32.6494 13.0111 31.7299 13.9849 31.7299 15.2583V15.7078Z" fill="#F45D44"/>
<path d="M42.0742 22.0005C40.7716 22.0005 39.7755 21.0267 39.7755 19.7533V11.0642C39.7755 9.1166 38.3196 8.14282 37.0937 8.14282C36.0209 8.14282 34.4885 8.59226 34.4119 10.0904C34.3352 11.3638 33.4158 12.3376 32.1132 12.3376C30.8106 12.3376 29.8145 11.3638 29.8145 10.0904C29.8145 6.41997 32.956 3.64844 37.0937 3.64844C41.2313 3.64844 44.3729 6.64469 44.3729 10.5398V19.6784C44.3729 20.9518 43.3768 22.0005 42.0742 22.0005Z" fill="#F45D44"/>
<path d="M49.97 11.4382L54.1842 6.7191C54.644 6.19476 55.257 5.97004 55.9466 5.97004C57.9388 5.97004 59.0115 8.29213 57.7089 9.71536L54.5674 13.236L58.1687 18.5543C59.1648 20.0524 58.092 22 56.2531 22C55.4868 22 54.7972 21.6255 54.3375 21.0262L51.1959 16.4569L49.97 17.8802V19.7528C49.97 20.9513 48.9739 22 47.6713 22C46.4453 22 45.3726 21.0262 45.3726 19.7528V4.24719C45.3726 3.04869 46.3687 2 47.6713 2C48.8972 2 49.97 2.97378 49.97 4.24719V11.4382Z" fill="#F45D44"/>
</svg>
